<?xml version="1.0" encoding="UTF-8"?>
<svg xmlns="http://www.w3.org/2000/svg" xmlns:xlink="http://www.w3.org/1999/xlink" width="30px" height="30px" viewBox="0 0 30 30" version="1.1">
<g id="surface1">
<path style=" stroke:none;fill-rule:nonzero;fill:rgb(17.647059%,75.686275%,0%);fill-opacity:1;" d="M 30 25.5 C 30 27.984375 27.984375 30 25.5 30 L 4.5 30 C 2.015625 30 0 27.984375 0 25.5 L 0 4.5 C 0 2.015625 2.015625 0 4.5 0 L 25.5 0 C 27.984375 0 30 2.015625 30 4.5 Z M 30 25.5 "/>
<path style=" stroke:none;fill-rule:nonzero;fill:rgb(100%,100%,100%);fill-opacity:1;" d="M 20.082031 11.1875 C 17.660156 11.3125 15.554688 12.046875 13.84375 13.707031 C 12.117188 15.382812 11.328125 17.433594 11.542969 19.980469 C 10.597656 19.863281 9.734375 19.734375 8.871094 19.660156 C 8.570312 19.636719 8.214844 19.671875 7.960938 19.8125 C 7.121094 20.289062 6.3125 20.824219 5.355469 21.421875 C 5.53125 20.628906 5.644531 19.933594 5.847656 19.265625 C 5.992188 18.773438 5.925781 18.5 5.472656 18.179688 C 2.566406 16.128906 1.339844 13.058594 2.257812 9.894531 C 3.105469 6.972656 5.1875 5.195312 8.019531 4.273438 C 11.882812 3.011719 16.226562 4.296875 18.574219 7.367188 C 19.421875 8.472656 19.941406 9.71875 20.082031 11.1875 Z M 8.9375 10.203125 C 8.960938 9.625 8.457031 9.101562 7.863281 9.085938 C 7.253906 9.066406 6.753906 9.53125 6.734375 10.132812 C 6.714844 10.742188 7.183594 11.230469 7.796875 11.246094 C 8.402344 11.261719 8.914062 10.796875 8.9375 10.203125 Z M 14.75 9.085938 C 14.152344 9.097656 13.648438 9.605469 13.660156 10.1875 C 13.667969 10.785156 14.164062 11.257812 14.777344 11.25 C 15.394531 11.242188 15.863281 10.769531 15.855469 10.152344 C 15.851562 9.550781 15.359375 9.074219 14.75 9.085938 Z M 14.75 9.085938 "/>
<path style=" stroke:none;fill-rule:nonzero;fill:rgb(100%,100%,100%);fill-opacity:1;" d="M 25.519531 26.28125 C 24.753906 25.941406 24.050781 25.429688 23.300781 25.351562 C 22.554688 25.273438 21.773438 25.703125 20.992188 25.78125 C 18.613281 26.027344 16.484375 25.363281 14.730469 23.738281 C 11.390625 20.652344 11.867188 15.914062 15.730469 13.382812 C 19.164062 11.132812 24.199219 11.882812 26.621094 15.003906 C 28.734375 17.730469 28.484375 21.34375 25.90625 23.632812 C 25.160156 24.296875 24.890625 24.839844 25.371094 25.714844 C 25.460938 25.875 25.46875 26.078125 25.519531 26.28125 Z M 16.792969 17.832031 C 17.28125 17.832031 17.683594 17.453125 17.703125 16.96875 C 17.71875 16.460938 17.308594 16.03125 16.796875 16.027344 C 16.292969 16.027344 15.867188 16.460938 15.886719 16.964844 C 15.902344 17.445312 16.308594 17.832031 16.792969 17.832031 Z M 22.417969 16.03125 C 21.945312 16.027344 21.542969 16.414062 21.523438 16.894531 C 21.503906 17.40625 21.898438 17.824219 22.40625 17.828125 C 22.894531 17.828125 23.285156 17.457031 23.300781 16.972656 C 23.320312 16.457031 22.921875 16.035156 22.417969 16.03125 Z M 22.417969 16.03125 "/>
</g>
</svg>
