<?xml version="1.0" encoding="UTF-8" standalone="no"?>
<!-- Created with Inkscape (http://www.inkscape.org/) -->

<svg
   xmlns:dc="http://purl.org/dc/elements/1.1/"
   xmlns:cc="http://creativecommons.org/ns#"
   xmlns:rdf="http://www.w3.org/1999/02/22-rdf-syntax-ns#"
   xmlns:svg="http://www.w3.org/2000/svg"
   xmlns="http://www.w3.org/2000/svg"
   xmlns:sodipodi="http://sodipodi.sourceforge.net/DTD/sodipodi-0.dtd"
   xmlns:inkscape="http://www.inkscape.org/namespaces/inkscape"
   version="1.1"
   id="svg46294"
   xml:space="preserve"
   width="800"
   height="800"
   viewBox="0 0 800 800"
   sodipodi:docname="flower-clipart-6-publicdomainvectors.org.svg"
   inkscape:version="0.92.4 (5da689c313, 2019-01-14)"><metadata
     id="metadata46300"><rdf:RDF><cc:Work
         rdf:about=""><dc:format>image/svg+xml</dc:format><dc:type
           rdf:resource="http://purl.org/dc/dcmitype/StillImage" /><dc:title></dc:title></cc:Work></rdf:RDF></metadata><defs
     id="defs46298"><clipPath
       clipPathUnits="userSpaceOnUse"
       id="clipPath46310"><path
         d="M 0,600 H 600 V 0 H 0 Z"
         id="path46308"
         inkscape:connector-curvature="0" /></clipPath></defs><sodipodi:namedview
     pagecolor="#ffffff"
     bordercolor="#666666"
     borderopacity="1"
     objecttolerance="10"
     gridtolerance="10"
     guidetolerance="10"
     inkscape:pageopacity="0"
     inkscape:pageshadow="2"
     inkscape:window-width="1920"
     inkscape:window-height="1018"
     id="namedview46296"
     showgrid="false"
     inkscape:zoom="1.0013867"
     inkscape:cx="400"
     inkscape:cy="400"
     inkscape:window-x="-8"
     inkscape:window-y="-8"
     inkscape:window-maximized="1"
     inkscape:current-layer="g46302" /><g
     id="g46302"
     inkscape:groupmode="layer"
     inkscape:label="flower-clipart-6-publicdomainvectors.org"
     transform="matrix(1.3333333,0,0,-1.3333333,0,800)"><g
       id="g46304"><g
         id="g46306"
         clip-path="url(#clipPath46310)"><path
           d="m 326.326,86.439 c 62.108,0 112.765,21.056 112.765,46.874 0,25.818 -50.657,46.875 -112.765,46.875 -62.108,0 -112.763,-21.057 -112.763,-46.875 0,-25.818 50.655,-46.874 112.763,-46.874"
           style="fill:#e6e6e6;fill-opacity:1;fill-rule:evenodd;stroke:none"
           id="path46312"
           inkscape:connector-curvature="0" /><path
           d="m 330.5,313.428 c 3.448,7.902 8.024,41.592 18.109,42.842 7.107,0.88 28.275,1.613 32.791,6.778 16.556,18.93 -13.431,26.278 33.886,52.106 -8.461,-17.634 17.743,-46.281 8.846,-68.761 -5.979,-15.102 -36.019,4.502 -52.872,-18.602 -8.956,-12.279 -14.107,-26.9 -40.76,-14.363"
           style="fill:#81b84a;fill-opacity:1;fill-rule:evenodd;stroke:none"
           id="path46314"
           inkscape:connector-curvature="0" /><path
           d="m 422.98,373.48 c 2.876,-9.291 4.5,-18.626 1.152,-27.087 -5.979,-15.102 -36.019,4.502 -52.872,-18.602 -8.956,-12.279 -14.107,-26.9 -40.76,-14.363 10.509,-0.133 23.319,8.31 33.016,19.89 14.99,17.899 13.441,16.67 36.943,20.573 20.375,3.388 20.301,6.927 22.521,19.589"
           style="fill:#689c33;fill-opacity:1;fill-rule:evenodd;stroke:none"
           id="path46316"
           inkscape:connector-curvature="0" /><path
           d="m 314.39,186.171 c 9.007,12.113 31.531,65.987 47.909,65.8 11.541,-0.133 45.053,-3.605 54.486,3.813 34.575,27.192 -9.079,45.77 76.855,77.416 -21.298,-26.861 6.722,-79.305 -17.467,-113.968 -16.248,-23.285 -54.405,15.272 -91.348,-18.65 -19.633,-18.026 -34.367,-40.711 -70.435,-14.411"
           style="fill:#81b84a;fill-opacity:1;fill-rule:evenodd;stroke:none"
           id="path46318"
           inkscape:connector-curvature="0" /><path
           d="m 486.711,263.615 c 0.274,-15.772 -1.433,-31.337 -10.538,-44.383 -16.248,-23.285 -54.405,15.272 -91.348,-18.65 -19.633,-18.026 -34.367,-40.711 -70.435,-14.411 16.412,-2.536 40.339,8.396 60.814,25.121 31.652,25.857 28.664,24.193 67.281,25.375 33.481,1.024 34.975,6.808 44.226,26.948"
           style="fill:#689c33;fill-opacity:1;fill-rule:evenodd;stroke:none"
           id="path46320"
           inkscape:connector-curvature="0" /><path
           d="m 270.046,458.53 c 11.328,-25.593 26.42,-50.678 45.981,-73.149 22.29,-25.604 -0.106,-257.506 -71.962,-293.325 10.533,-16.345 25.426,-19.615 46.859,3.27 63.554,132.938 52.046,231.897 38.454,294.287 -8.9,40.858 -18.6,66.398 -32.875,98.352 -8.818,-9.812 -17.636,-19.623 -26.457,-29.435"
           style="fill:#81b84a;fill-opacity:1;fill-rule:evenodd;stroke:none"
           id="path46322"
           inkscape:connector-curvature="0" /><path
           d="m 248.917,85.826 c 10.128,-10.512 23.673,-10.073 42.007,9.5 63.554,132.938 52.046,231.897 38.454,294.287 -8.9,40.858 -18.6,66.398 -32.875,98.352 l -2.358,-2.624 c 12.613,-28.828 21.541,-53.53 29.785,-91.369 13.593,-62.389 25.098,-161.35 -38.457,-294.286 -15.224,-16.259 -27.149,-19.313 -36.556,-13.86"
           style="fill:#689c33;fill-opacity:1;fill-rule:evenodd;stroke:none"
           id="path46324"
           inkscape:connector-curvature="0" /><path
           d="m 264.786,517.743 c 24.45,7.098 47.969,0.115 52.532,-15.599 4.562,-15.713 -11.56,-34.206 -36.009,-41.305 -24.453,-7.098 -47.972,-0.115 -52.533,15.599 -4.564,15.713 11.559,34.206 36.01,41.305"
           style="fill:#4d0808;fill-opacity:1;fill-rule:evenodd;stroke:none"
           id="path46326"
           inkscape:connector-curvature="0" /><path
           d="m 270.063,498.963 c -26.135,-9.815 -60.099,7.248 -79.005,27.788 -9.092,9.879 27.521,8.924 34.87,20.16 6.986,10.677 -8.529,33.281 3.271,38.139 14.509,5.975 27.485,-17.015 43.043,-19.07 14.623,-1.93 44.067,22.37 43.588,7.628 -0.948,-29.17 -18.446,-64.383 -45.767,-74.645"
           style="fill:#852121;fill-opacity:1;fill-rule:evenodd;stroke:none"
           id="path46328"
           inkscape:connector-curvature="0" /><path
           d="m 293.492,515.967 c 6.869,13.525 12.724,28.771 20.08,40.7 1.088,4.759 1.805,9.513 2.116,14.143 -2.378,2.548 -6.006,4.856 -9.656,6.328 -5.303,-1.824 -12.094,-5.294 -18.655,-7.905 -2.404,-3.754 -4.881,-7.514 -8.597,-8.974 -5.935,-2.33 -14.455,-1.125 -18.798,3.542 -2.003,2.153 -2.412,5.63 -2.47,9.277 -7.03,5.133 -13.764,11.336 -20.693,12.688 -4.39,-1.633 -8.565,-4.055 -12.102,-7.034 -0.457,-3.785 0.65,-8.653 1.668,-13.62 4.596,-0.878 9.376,-2.008 10.44,-5.125 2.66,-7.791 -1.428,-22.297 -9.535,-25.336 -3.352,-1.256 -7.721,1.905 -11.798,5.533 -4.867,-1.787 -10.474,-3.097 -15.225,-4.426 -1.989,-4.229 -4.653,-8.253 -7.472,-10.84 2.343,-2.405 4.89,-4.751 7.597,-7.001 21.293,-2.125 40.625,-14.361 56.449,-21.703 4.547,0.279 8.986,1.159 13.222,2.749 8.94,3.358 16.829,9.389 23.429,17.004"
           style="fill:#700e0e;fill-opacity:1;fill-rule:evenodd;stroke:none"
           id="path46330"
           inkscape:connector-curvature="0" /><path
           d="m 269.723,498.838 0.34,0.125 c 6.11,2.295 11.73,5.84 16.783,10.284 1.082,6.646 1.124,14.26 3.285,19.26 1.632,3.778 3.044,21.434 -2.397,19.303 -6.503,-2.545 -2.223,-25.604 -11.446,-24.336 -11.94,1.644 -9.968,18.005 -15.75,14.739 -7.602,-4.293 8.017,-18.706 3.176,-20.441 -11.448,-4.105 -25.558,13.163 -28.252,4.622 -1.972,-6.255 23.872,-18.152 27.951,-19.923 1.477,-0.641 3.877,-2.142 6.31,-3.633"
           style="fill:#420505;fill-opacity:1;fill-rule:evenodd;stroke:none"
           id="path46332"
           inkscape:connector-curvature="0" /><path
           d="m 256.836,496.216 c -19.354,-1.187 -40.67,8.604 -56.441,21.701 -4.8,3.923 -8.1,6.82 -7.094,6.737 22.142,-1.814 48.464,-21.445 63.535,-28.438"
           style="fill:#5e0e0e;fill-opacity:1;fill-rule:evenodd;stroke:none"
           id="path46334"
           inkscape:connector-curvature="0" /><path
           d="m 263.162,470.379 c 5.716,-23.191 -22.197,-46.267 -50.819,-56.493 -13.767,-4.918 -4.348,24.089 -15.999,32.622 -11.073,8.108 -41.377,1.078 -44.463,11.651 -3.797,13.002 26.389,17.913 32.346,29.848 5.599,11.218 -16.536,40.489 0.828,36.611 34.358,-7.672 72.133,-29.989 78.107,-54.239"
           style="fill:#9c3333;fill-opacity:1;fill-rule:evenodd;stroke:none"
           id="path46336"
           inkscape:connector-curvature="0" /><path
           d="m 248.313,493.119 c -14.473,8.691 -31.218,16.98 -43.691,25.681 -5.393,1.998 -10.867,3.695 -16.282,5.043 -3.558,-1.296 -7.116,-3.646 -9.688,-6.212 0.962,-4.665 3.539,-10.911 5.145,-16.769 3.907,-2.807 7.803,-5.677 8.692,-8.991 1.42,-5.291 -1.939,-11.808 -8.453,-14.169 -3.007,-1.09 -7.22,-0.592 -11.556,0.227 -7.675,-4.397 -16.551,-8.304 -19.724,-13.515 0.942,-3.893 2.869,-7.8 5.598,-11.331 4.384,-1.262 10.404,-1.532 16.522,-1.897 2.078,3.461 4.502,7.011 8.437,7.122 9.835,0.276 26.102,-6.425 27.869,-13.619 0.731,-2.975 -4.006,-5.714 -9.23,-8.109 1.016,-4.31 1.302,-9.099 1.8,-13.206 4.561,-2.59 8.727,-5.671 11.154,-8.537 3.381,1.302 6.739,2.779 10.019,4.408 7.339,16.497 26.218,29.032 38.503,39.927 0.699,3.697 0.661,7.452 -0.266,11.207 -1.955,7.937 -7.316,15.664 -14.849,22.74"
           style="fill:#7d1919;fill-opacity:1;fill-rule:evenodd;stroke:none"
           id="path46338"
           inkscape:connector-curvature="0" /><path
           d="m 263.233,470.081 -0.071,0.298 c -1.336,5.425 -4.264,10.752 -8.39,15.841 -7.629,2.44 -16.646,4.278 -22.082,7.187 -4.107,2.2 -24.713,7.513 -23.419,2.662 1.542,-5.794 29.843,-7.845 26.25,-14.908 -4.649,-9.143 -23.594,-3.691 -21.034,-9.082 3.366,-7.085 23.985,1.968 24.946,-2.308 2.275,-10.114 -21.388,-17.288 -11.872,-21.463 6.963,-3.058 26.915,14.758 29.939,17.595 1.092,1.027 3.416,2.588 5.733,4.178"
           style="fill:#4d0808;fill-opacity:1;fill-rule:evenodd;stroke:none"
           id="path46340"
           inkscape:connector-curvature="0" /><path
           d="m 298.106,484.532 c 11.412,-21.099 44.97,-14.857 70.582,1.082 12.32,7.667 -12.902,20.626 -10.788,36.128 2.009,14.732 26.639,34.302 21.756,44.311 -6.006,12.308 -29.171,-8.673 -40.925,-5.027 -11.046,3.426 -15.585,42.15 -24.521,25.323 -17.684,-33.296 -28.034,-79.758 -16.104,-101.817"
           style="fill:#9c3333;fill-opacity:1;fill-rule:evenodd;stroke:none"
           id="path46342"
           inkscape:connector-curvature="0" /><path
           d="m 293.03,512.712 c 3.875,17.901 9.514,37.359 12.058,53.646 2.258,5.79 4.762,11.431 7.46,16.777 3.2,1.965 7.089,3.179 10.469,3.443 2.42,-4.093 4.808,-10.615 7.581,-16.078 -0.743,-5.159 -1.439,-10.354 0.144,-13.426 2.527,-4.907 9.013,-6.812 14.866,-3.208 2.699,1.663 5.158,5.43 7.487,9.526 7.952,3.1 16.377,7.52 21.886,6.391 1.927,-3.527 3.21,-7.863 3.72,-12.582 -2.069,-4.448 -5.872,-9.519 -9.675,-14.737 -3.642,0.772 -7.568,1.329 -10.241,-1.782 -6.681,-7.776 -13.044,-25.719 -9.5,-32.258 1.466,-2.704 6.389,-0.811 11.409,1.723 2.152,-3.882 5.098,-7.513 7.459,-10.834 -1.318,-5.537 -2.054,-11.1 -1.782,-15.102 -3.086,-1.817 -6.273,-3.489 -9.508,-4.99 -15.653,5.763 -36.338,-0.64 -51.591,-2.861 -2.884,2.058 -5.317,4.754 -7.166,8.172 -3.903,7.218 -5.42,17.051 -5.076,28.18"
           style="fill:#7d1919;fill-opacity:1;fill-rule:evenodd;stroke:none"
           id="path46344"
           inkscape:connector-curvature="0" /><path
           d="m 298.257,484.261 -0.151,0.271 c -2.668,4.934 -4.221,11.09 -4.827,18.046 3.446,7.917 8.2,16.529 9.887,23.002 1.274,4.89 11.414,25.364 13.736,20.873 2.774,-5.366 -14.586,-29.76 -7.588,-31.863 9.062,-2.721 18.011,16.504 19.85,10.601 2.415,-7.759 -17.141,-18.044 -14.976,-21.858 5.123,-9.024 25.457,5.062 21.904,-5.615 -2.603,-7.816 -27.455,-11.339 -31.312,-11.775 -1.393,-0.158 -3.952,-0.931 -6.523,-1.682"
           style="fill:#4d0808;fill-opacity:1;fill-rule:evenodd;stroke:none"
           id="path46346"
           inkscape:connector-curvature="0" /><path
           d="m 288.097,479.279 c 26.132,9.814 60.097,-7.248 79.003,-27.788 9.092,-9.879 -27.522,-8.924 -34.872,-20.16 -6.985,-10.677 8.531,-33.28 -3.267,-38.139 -14.512,-5.976 -27.487,17.015 -43.044,19.07 -14.624,1.93 -44.068,-22.369 -43.588,-7.629 0.948,29.172 18.443,64.385 45.768,74.646"
           style="fill:#a84343;fill-opacity:1;fill-rule:evenodd;stroke:none"
           id="path46348"
           inkscape:connector-curvature="0" /><path
           d="m 264.665,462.274 c -6.87,-13.525 -12.723,-28.771 -20.079,-40.7 -1.09,-4.757 -1.804,-9.511 -2.118,-14.142 2.381,-2.548 6.008,-4.855 9.659,-6.328 5.303,1.825 12.093,5.293 18.656,7.905 2.4,3.754 4.88,7.514 8.596,8.974 5.934,2.332 14.453,1.126 18.797,-3.541 2.003,-2.154 2.413,-5.63 2.47,-9.277 7.029,-5.134 13.764,-11.336 20.692,-12.689 4.391,1.631 8.565,4.056 12.103,7.034 0.457,3.784 -0.651,8.653 -1.668,13.621 -4.595,0.876 -9.377,2.007 -10.441,5.123 -2.66,7.791 1.427,22.297 9.534,25.336 3.355,1.257 7.724,-1.903 11.798,-5.532 4.868,1.786 10.478,3.097 15.227,4.426 1.987,4.228 4.652,8.252 7.472,10.839 -2.342,2.406 -4.89,4.752 -7.599,7.001 -21.289,2.125 -40.622,14.363 -56.447,21.704 -4.547,-0.279 -8.989,-1.159 -13.22,-2.749 -8.943,-3.358 -16.83,-9.389 -23.432,-17.005"
           style="fill:#8c2121;fill-opacity:1;fill-rule:evenodd;stroke:none"
           id="path46350"
           inkscape:connector-curvature="0" /><path
           d="m 288.434,479.403 -0.337,-0.124 c -6.113,-2.296 -11.733,-5.839 -16.785,-10.285 -1.083,-6.645 -1.125,-14.259 -3.285,-19.26 -1.632,-3.777 -3.045,-21.433 2.399,-19.302 6.5,2.545 2.222,25.605 11.445,24.335 11.937,-1.642 9.968,-18.003 15.749,-14.738 7.601,4.292 -8.018,18.705 -3.178,20.441 11.45,4.105 25.559,-13.163 28.254,-4.621 1.972,6.254 -23.873,18.151 -27.952,19.923 -1.476,0.641 -3.878,2.141 -6.31,3.631"
           style="fill:#611010;fill-opacity:1;fill-rule:evenodd;stroke:none"
           id="path46352"
           inkscape:connector-curvature="0" /><path
           d="m 267.512,508.355 c 16.383,4.757 32.142,0.078 35.198,-10.452 3.058,-10.528 -7.744,-22.92 -24.129,-27.677 -16.383,-4.756 -32.143,-0.077 -35.199,10.452 -3.056,10.529 7.746,22.921 24.13,27.677"
           style="fill:#ffcc00;fill-opacity:1;fill-rule:evenodd;stroke:none"
           id="path46354"
           inkscape:connector-curvature="0" /><path
           d="m 256.639,502.642 c 8.78,4.843 18.422,4.196 21.534,-1.447 3.112,-5.643 -1.483,-14.144 -10.262,-18.987 -8.78,-4.843 -18.422,-4.196 -21.534,1.447 -3.111,5.643 1.482,14.143 10.262,18.987"
           style="fill:#ffd83d;fill-opacity:1;fill-rule:evenodd;stroke:none"
           id="path46356"
           inkscape:connector-curvature="0" /><path
           d="m 284.721,509.952 c 9.041,-1.071 16.057,-5.389 17.989,-12.049 3.058,-10.528 -7.744,-22.92 -24.129,-27.677 -7.986,-2.318 -15.823,-2.393 -22.113,-0.643 5.252,-0.624 11.188,-0.152 17.209,1.596 16.384,4.758 27.188,17.149 24.13,27.678 -1.566,5.397 -6.472,9.256 -13.086,11.095"
           style="fill:#d9ae00;fill-opacity:1;fill-rule:evenodd;stroke:none"
           id="path46358"
           inkscape:connector-curvature="0" /><path
           d="m 255.144,500.588 c 5.375,2.965 11.276,2.567 13.183,-0.887 1.905,-3.454 -0.908,-8.659 -6.282,-11.624 -5.377,-2.965 -11.28,-2.568 -13.186,0.887 -1.905,3.454 0.909,8.658 6.285,11.624"
           style="fill:#ffdf61;fill-opacity:1;fill-rule:evenodd;stroke:none"
           id="path46360"
           inkscape:connector-curvature="0" /><path
           d="m 327.012,250.536 c -6.53,8.781 -22.857,47.837 -34.731,47.702 -8.364,-0.096 -32.66,-2.613 -39.499,2.765 -25.068,19.711 6.581,33.18 -55.719,56.124 15.442,-19.474 -4.872,-57.494 12.664,-82.623 11.781,-16.88 39.441,11.072 66.223,-13.52 14.234,-13.068 24.915,-29.513 51.062,-10.448"
           style="fill:#81b84a;fill-opacity:1;fill-rule:evenodd;stroke:none"
           id="path46362"
           inkscape:connector-curvature="0" /><path
           d="m 202.087,306.679 c -0.198,-11.434 1.04,-22.717 7.64,-32.175 11.781,-16.88 39.441,11.072 66.223,-13.52 14.234,-13.068 24.915,-29.513 51.062,-10.448 -11.897,-1.838 -29.242,6.087 -44.086,18.213 -22.948,18.745 -20.781,17.539 -48.777,18.395 -24.271,0.743 -25.355,4.934 -32.062,19.535"
           style="fill:#689c33;fill-opacity:1;fill-rule:evenodd;stroke:none"
           id="path46364"
           inkscape:connector-curvature="0" /></g></g></g></svg>